:FULLY-SPECIFIED
:FORCE-ALL-JOINTS-BE-3DOF
:DEGREES
17
root 7.78813 15.8671 -34.3548 7.34853 -2.67231 -4.76646
lfemur -41.9021 7.43406 -15.0249
ltibia 40.7319 0 0
lfoot -8.57241 7.84777 0
ltoes -8.71678 0 0
rfemur 3.31339 5.24731 29.1084
rtibia 14.7072 0 0
rfoot -0.981221 0.373047 0
rtoes -11.1807 0 0
lowerback -6.00771 0.597722 1.57603
upperback -1.40057 0.595222 3.13682
thorax 1.90868 0.301039 2.41532
lowerneck -19.6439 -4.98417 -13.007
upperneck 14.5229 -6.26912 16.0582
head 8.74221 -2.12923 6.8787
lclavicle -8.39079e-15 -9.38649e-15 0
lhumerus -39.1591 -4.54877 88.4264
lradius 25.75 0 0
lwrist 4.36831 0 0
lhand -5.49178 -20.8336 0
lfingers 7.12502 0 0
lthumb 20.2945 7.82452 0
rclavicle -8.39079e-15 -9.38649e-15 0
rhumerus -41.5168 18.3834 -87.9138
rradius 56.1616 0 0
rwrist -27.8836 0 0
rhand -32.2834 -29.1823 0
rfingers 7.12502 0 0
rthumb -5.52225 -59.0874 0
18
root 7.80827 15.8592 -34.2062 7.36322 -2.92151 -4.83513
lfemur -41.9779 7.49727 -14.942
ltibia 40.5333 0 0
lfoot -8.19452 7.81659 0
ltoes -8.52104 0 0
rfemur 4.1391 5.27986 29.0458
rtibia 14.1189 0 0
rfoot -1.04255 0.396362 0
rtoes -11.8795 0 0
lowerback -6.11449 0.623242 1.61582
upperback -1.39318 0.620849 3.17305
thorax 1.97516 0.313852 2.43459
lowerneck -19.7055 -4.9723 -12.9864
upperneck 14.5756 -6.2465 16.0041
head 8.76423 -2.11969 6.86048
lclavicle -9.31123e-15 -1.09671e-14 0
lhumerus -39.3612 -4.64691 88.5621
lradius 25.6465 0 0
lwrist 4.18473 0 0
lhand -5.00374 -20.6969 0
lfingers 7.12502 0 0
lthumb 20.7627 7.90316 0
rclavicle -9.31123e-15 -1.09671e-14 0
rhumerus -41.6885 18.4414 -88.1519
rradius 56.1592 0 0
rwrist -27.8407 0 0
rhand -32.226 -29.3967 0
rfingers 7.12502 0 0
rthumb -5.46684 -59.3032 0
19
root 7.82841 15.8512 -34.0576 7.37791 -3.17071 -4.90379
lfemur -42.0537 7.56049 -14.859
ltibia 40.3346 0 0
lfoot -7.81664 7.78541 0
ltoes -8.32529 0 0
rfemur 4.96481 5.3124 28.9832
rtibia 13.5306 0 0
rfoot -1.10387 0.419677 0
rtoes -12.5783 0 0
lowerback -6.22128 0.648762 1.65561
upperback -1.38578 0.646476 3.20929
thorax 2.04163 0.326665 2.45385
lowerneck -19.7671 -4.96043 -12.9657
upperneck 14.6283 -6.22387 15.95
head 8.78624 -2.11015 6.84225
lclavicle -1.02317e-14 -1.25476e-14 0
lhumerus -39.5632 -4.74504 88.6979
lradius 25.543 0 0
lwrist 4.00115 0 0
lhand -4.51571 -20.5601 0
lfingers 7.12502 0 0
lthumb 21.2308 7.9818 0
rclavicle -1.02317e-14 -1.25476e-14 0
rhumerus -41.8603 18.4995 -88.3901
rradius 56.1569 0 0
rwrist -27.7978 0 0
rhand -32.1686 -29.6112 0
rfingers 7.12502 0 0
rthumb -5.41144 -59.519 0
20
root 7.84854 15.8433 -33.909 7.39259 -3.41991 -4.97246
lfemur -42.1295 7.62371 -14.7761
ltibia 40.1359 0 0
lfoot -7.43875 7.75423 0
ltoes -8.12955 0 0
rfemur 5.79053 5.34495 28.9206
rtibia 12.9423 0 0
rfoot -1.1652 0.442993 0
rtoes -13.2771 0 0
lowerback -6.32807 0.674282 1.6954
upperback -1.37839 0.672103 3.24553
thorax 2.1081 0.339478 2.47312
lowerneck -19.8287 -4.94855 -12.945
upperneck 14.681 -6.20125 15.8959
head 8.80826 -2.1006 6.82403
lclavicle -1.11521e-14 -1.41282e-14 0
lhumerus -39.7652 -4.84318 88.8336
lradius 25.4396 0 0
lwrist 3.81757 0 0
lhand -4.02768 -20.4234 0
lfingers 7.12502 0 0
lthumb 21.699 8.06045 0
rclavicle -1.11521e-14 -1.41282e-14 0
rhumerus -42.032 18.5575 -88.6283
rradius 56.1546 0 0
rwrist -27.755 0 0
rhand -32.1112 -29.8256 0
rfingers 7.12502 0 0
rthumb -5.35604 -59.7348 0
21
root 7.86868 15.8354 -33.7604 7.40728 -3.66911 -5.04113
lfemur -42.2053 7.68693 -14.6932
ltibia 39.9373 0 0
lfoot -7.06086 7.72305 0
ltoes -7.9338 0 0
rfemur 6.61624 5.37749 28.858
rtibia 12.354 0 0
rfoot -1.22653 0.466308 0
rtoes -13.9759 0 0
lowerback -6.43485 0.699802 1.73519
upperback -1.371 0.69773 3.28177
thorax 2.17458 0.352291 2.49239
lowerneck -19.8903 -4.93668 -12.9244
upperneck 14.7337 -6.17863 15.8418
head 8.83028 -2.09106 6.80581
lclavicle -1.20725e-14 -1.57088e-14 0
lhumerus -39.9672 -4.94132 88.9694
lradius 25.3361 0 0
lwrist 3.63399 0 0
lhand -3.53965 -20.2867 0
lfingers 7.12502 0 0
lthumb 22.1672 8.13909 0
rclavicle -1.20725e-14 -1.57088e-14 0
rhumerus -42.2038 18.6155 -88.8664
rradius 56.1522 0 0
rwrist -27.7121 0 0
rhand -32.0538 -30.04 0
rfingers 7.12502 0 0
rthumb -5.30063 -59.9506 0
22
root 7.88882 15.8275 -33.6119 7.42196 -3.91831 -5.1098
lfemur -42.281 7.75014 -14.6103
ltibia 39.7386 0 0
lfoot -6.68298 7.69187 0
ltoes -7.73806 0 0
rfemur 7.44195 5.41004 28.7954
rtibia 11.7658 0 0
rfoot -1.28785 0.489624 0
rtoes -14.6746 0 0
lowerback -6.54164 0.725322 1.77498
upperback -1.3636 0.723358 3.318
thorax 2.24105 0.365104 2.51165
lowerneck -19.952 -4.92481 -12.9037
upperneck 14.7864 -6.15601 15.7878
head 8.85229 -2.08152 6.78758
lclavicle -1.2993e-14 -1.72894e-14 0
lhumerus -40.1693 -5.03946 89.1051
lradius 25.2326 0 0
lwrist 3.45041 0 0
lhand -3.05161 -20.15 0
lfingers 7.12502 0 0
lthumb 22.6353 8.21773 0
rclavicle -1.2993e-14 -1.72894e-14 0
rhumerus -42.3755 18.6735 -89.1046
rradius 56.1499 0 0
rwrist -27.6692 0 0
rhand -31.9965 -30.2545 0
rfingers 7.12502 0 0
rthumb -5.24523 -60.1665 0
23
root 7.90896 15.8196 -33.4633 7.43665 -4.16751 -5.17847
lfemur -42.3568 7.81336 -14.5274
ltibia 39.54 0 0
lfoot -6.30509 7.66069 0
ltoes -7.54231 0 0
rfemur 8.26766 5.44258 28.7328
rtibia 11.1775 0 0
rfoot -1.34918 0.512939 0
rtoes -15.3734 0 0
lowerback -6.64842 0.750842 1.81476
upperback -1.35621 0.748985 3.35424
thorax 2.30753 0.377917 2.53092
lowerneck -20.0136 -4.91294 -12.8831
upperneck 14.8391 -6.13339 15.7337
head 8.87431 -2.07198 6.76936
lclavicle -1.39134e-14 -1.887e-14 0
lhumerus -40.3713 -5.1376 89.2409
lradius 25.1291 0 0
lwrist 3.26684 0 0
lhand -2.56358 -20.0133 0
lfingers 7.12502 0 0
lthumb 23.1035 8.29637 0
rclavicle -1.39134e-14 -1.887e-14 0
rhumerus -42.5473 18.7315 -89.3427
rradius 56.1475 0 0
rwrist -27.6263 0 0
rhand -31.9391 -30.4689 0
rfingers 7.12502 0 0
rthumb -5.18982 -60.3823 0
24
root 7.92909 15.8117 -33.3147 7.45133 -4.41671 -5.24714
lfemur -42.4326 7.87658 -14.4445
ltibia 39.3413 0 0
lfoot -5.9272 7.62951 0
ltoes -7.34657 0 0
rfemur 9.09338 5.47513 28.6702
rtibia 10.5892 0 0
rfoot -1.41051 0.536255 0
rtoes -16.0722 0 0
lowerback -6.75521 0.776362 1.85455
upperback -1.34882 0.774612 3.39048
thorax 2.374 0.39073 2.55019
lowerneck -20.0752 -4.90106 -12.8624
upperneck 14.8918 -6.11077 15.6796
head 8.89633 -2.06243 6.75114
lclavicle -1.48339e-14 -2.04506e-14 0
lhumerus -40.5733 -5.23574 89.3766
lradius 25.0257 0 0
lwrist 3.08326 0 0
lhand -2.07555 -19.8766 0
lfingers 7.12502 0 0
lthumb 23.5717 8.37502 0
rclavicle -1.48339e-14 -2.04506e-14 0
rhumerus -42.719 18.7895 -89.5809
rradius 56.1452 0 0
rwrist -27.5835 0 0
rhand -31.8817 -30.6833 0
rfingers 7.12502 0 0
rthumb -5.13442 -60.5981 0
25
root 7.94923 15.8037 -33.1661 7.46602 -4.66591 -5.3158
lfemur -42.5084 7.9398 -14.3615
ltibia 39.1426 0 0
lfoot -5.54932 7.59833 0
ltoes -7.15082 0 0
rfemur 9.91909 5.50767 28.6076
rtibia 10.0009 0 0
rfoot -1.47183 0.55957 0
rtoes -16.771 0 0
lowerback -6.862 0.801882 1.89434
upperback -1.34142 0.800239 3.42672
thorax 2.44048 0.403543 2.56945
lowerneck -20.1368 -4.88919 -12.8417
upperneck 14.9445 -6.08814 15.6255
head 8.91834 -2.05289 6.73291
lclavicle -1.57543e-14 -2.20311e-14 0
lhumerus -40.7753 -5.33387 89.5124
lradius 24.9222 0 0
lwrist 2.89968 0 0
lhand -1.58752 -19.7398 0
lfingers 7.12502 0 0
lthumb 24.0398 8.45366 0
rclavicle -1.57543e-14 -2.20311e-14 0
rhumerus -42.8908 18.8476 -89.8191
rradius 56.1429 0 0
rwrist -27.5406 0 0
rhand -31.8243 -30.8978 0
rfingers 7.12502 0 0
rthumb -5.07902 -60.8139 0
26
root 7.96937 15.7958 -33.0175 7.48071 -4.91511 -5.38447
lfemur -42.5842 8.00301 -14.2786
ltibia 38.944 0 0
lfoot -5.17143 7.56715 0
ltoes -6.95508 0 0
rfemur 10.7448 5.54022 28.545
rtibia 9.4126 0 0
rfoot -1.53316 0.582885 0
rtoes -17.4698 0 0
lowerback -6.96878 0.827402 1.93413
upperback -1.33403 0.825866 3.46295
thorax 2.50695 0.416355 2.58872
lowerneck -20.1984 -4.87732 -12.8211
upperneck 14.9972 -6.06552 15.5714
head 8.94036 -2.04335 6.71469
lclavicle -1.66748e-14 -2.36117e-14 0
lhumerus -40.9774 -5.43201 89.6481
lradius 24.8187 0 0
lwrist 2.7161 0 0
lhand -1.09948 -19.6031 0
lfingers 7.12502 0 0
lthumb 24.508 8.5323 0
rclavicle -1.66748e-14 -2.36117e-14 0
rhumerus -43.0625 18.9056 -90.0572
rradius 56.1405 0 0
rwrist -27.4977 0 0
rhand -31.7669 -31.1122 0
rfingers 7.12502 0 0
rthumb -5.02361 -61.0297 0
